{
	"asset":{
		"generator":"Khronos glTF Blender I/O v3.6.27",
		"version":"2.0"
	},
	"extensionsUsed":[
		"KHR_materials_specular",
		"KHR_materials_ior"
	],
	"scene":0,
	"scenes":[
		{
			"name":"Scene",
			"nodes":[
				0,
				1,
				2,
				3
			]
		}
	],
	"nodes":[
		{
			"mesh":0,
			"name":"inner",
			"rotation":[
				0.7071068286895752,
				0,
				0,
				0.7071068286895752
			],
			"scale":[
				0.009999999776482582,
				0.009999999776482582,
				0.009999999776482582
			]
		},
		{
			"mesh":1,
			"name":"others",
			"rotation":[
				0.7071068286895752,
				0,
				0,
				0.7071068286895752
			],
			"scale":[
				0.009999999776482582,
				0.009999999776482582,
				0.009999999776482582
			]
		},
		{
			"mesh":2,
			"name":"sole",
			"rotation":[
				0.7071068286895752,
				0,
				0,
				0.7071068286895752
			],
			"scale":[
				0.009999999776482582,
				0.009999999776482582,
				0.009999999776482582
			]
		},
		{
			"mesh":3,
			"name":"outer",
			"rotation":[
				0.7071068286895752,
				0,
				0,
				0.7071068286895752
			],
			"scale":[
				0.009999999776482582,
				0.009999999776482582,
				0.009999999776482582
			]
		}
	],
	"materials":[
		{
			"doubleSided":true,
			"extensions":{
				"KHR_materials_specular":{
					"specularColorFactor":[
						2.371357614441398,
						2.371357614441398,
						2.371357614441398
					]
				},
				"KHR_materials_ior":{
					"ior":1.4500000476837158
				}
			},
			"name":"Inner",
			"normalTexture":{
				"index":0
			},
			"occlusionTexture":{
				"index":1
			},
			"pbrMetallicRoughness":{
				"baseColorTexture":{
					"index":2
				},
				"metallicRoughnessTexture":{
					"index":1
				}
			}
		},
		{
			"doubleSided":true,
			"extensions":{
				"KHR_materials_specular":{
					"specularColorFactor":[
						2.371357614441398,
						2.371357614441398,
						2.371357614441398
					]
				},
				"KHR_materials_ior":{
					"ior":1.4500000476837158
				}
			},
			"name":"Others",
			"normalTexture":{
				"index":3
			},
			"occlusionTexture":{
				"index":4
			},
			"pbrMetallicRoughness":{
				"baseColorTexture":{
					"index":5
				},
				"metallicRoughnessTexture":{
					"index":4
				}
			}
		},
		{
			"doubleSided":true,
			"extensions":{
				"KHR_materials_specular":{
					"specularColorFactor":[
						2.371357614441398,
						2.371357614441398,
						2.371357614441398
					]
				},
				"KHR_materials_ior":{
					"ior":1.4500000476837158
				}
			},
			"name":"Sole",
			"normalTexture":{
				"index":6
			},
			"occlusionTexture":{
				"index":7
			},
			"pbrMetallicRoughness":{
				"baseColorTexture":{
					"index":8
				},
				"metallicRoughnessTexture":{
					"index":7
				}
			}
		},
		{
			"doubleSided":true,
			"extensions":{
				"KHR_materials_specular":{
					"specularColorFactor":[
						2.371357614441398,
						2.371357614441398,
						2.371357614441398
					]
				},
				"KHR_materials_ior":{
					"ior":1.4500000476837158
				}
			},
			"name":"Outer",
			"normalTexture":{
				"index":9
			},
			"occlusionTexture":{
				"index":10
			},
			"pbrMetallicRoughness":{
				"baseColorTexture":{
					"index":11
				},
				"metallicFactor":0.5,
				"metallicRoughnessTexture":{
					"index":10
				}
			}
		}
	],
	"meshes":[
		{
			"name":"Mesh",
			"primitives":[
				{
					"attributes":{
						"POSITION":0,
						"NORMAL":1,
						"TEXCOORD_0":2
					},
					"indices":3,
					"material":0
				}
			]
		},
		{
			"name":"Mesh.001",
			"primitives":[
				{
					"attributes":{
						"POSITION":4,
						"NORMAL":5,
						"TEXCOORD_0":6
					},
					"indices":7,
					"material":1
				}
			]
		},
		{
			"name":"Mesh.002",
			"primitives":[
				{
					"attributes":{
						"POSITION":8,
						"NORMAL":9,
						"TEXCOORD_0":10
					},
					"indices":11,
					"material":2
				}
			]
		},
		{
			"name":"Mesh.003",
			"primitives":[
				{
					"attributes":{
						"POSITION":12,
						"NORMAL":13,
						"TEXCOORD_0":14
					},
					"indices":15,
					"material":3
				}
			]
		}
	],
	"textures":[
		{
			"sampler":0,
			"source":0
		},
		{
			"sampler":0,
			"source":1
		},
		{
			"sampler":0,
			"source":2
		},
		{
			"sampler":0,
			"source":3
		},
		{
			"sampler":0,
			"source":4
		},
		{
			"sampler":0,
			"source":5
		},
		{
			"sampler":0,
			"source":6
		},
		{
			"sampler":0,
			"source":7
		},
		{
			"sampler":0,
			"source":8
		},
		{
			"sampler":0,
			"source":9
		},
		{
			"sampler":0,
			"source":10
		},
		{
			"sampler":0,
			"source":11
		}
	],
	"images":[
		{
			"mimeType":"image/png",
			"name":"Inner_Normal.png",
			"uri":"Inner_Normal_png.png"
		},
		{
			"mimeType":"image/png",
			"name":"Inner_ORM.png",
			"uri":"Inner_ORM_png.png"
		},
		{
			"mimeType":"image/png",
			"name":"Inner_BaseColor",
			"uri":"Inner_BaseColor.png"
		},
		{
			"mimeType":"image/png",
			"name":"Others_Normal.png",
			"uri":"Others_Normal_png.png"
		},
		{
			"mimeType":"image/png",
			"name":"Others_ORM.png",
			"uri":"Others_ORM_png.png"
		},
		{
			"mimeType":"image/png",
			"name":"Others_BaseColor.png",
			"uri":"Others_BaseColor_png.png"
		},
		{
			"mimeType":"image/png",
			"name":"Sole_Normal.png",
			"uri":"Sole_Normal_png.png"
		},
		{
			"mimeType":"image/png",
			"name":"Sole_ORM.png",
			"uri":"Sole_ORM_png.png"
		},
		{
			"mimeType":"image/png",
			"name":"Sole_BaseColor.png",
			"uri":"Sole_BaseColor_png.png"
		},
		{
			"mimeType":"image/png",
			"name":"Outer_Normal.png",
			"uri":"Outer_Normal_png.png"
		},
		{
			"mimeType":"image/png",
			"name":"Outer_ORM.png",
			"uri":"Outer_ORM_png.png"
		},
		{
			"mimeType":"image/png",
			"name":"Outer_BaseColor.png",
			"uri":"Outer_BaseColor_png.png"
		}
	],
	"accessors":[
		{
			"bufferView":0,
			"componentType":5126,
			"count":3585,
			"max":[
				14.443471908569336,
				5.308974742889404,
				4.089903354644775
			],
			"min":[
				-13.234098434448242,
				-4.846898555755615,
				-5.496430397033691
			],
			"type":"VEC3"
		},
		{
			"bufferView":1,
			"componentType":5126,
			"count":3585,
			"type":"VEC3"
		},
		{
			"bufferView":2,
			"componentType":5126,
			"count":3585,
			"type":"VEC2"
		},
		{
			"bufferView":3,
			"componentType":5123,
			"count":20358,
			"type":"SCALAR"
		},
		{
			"bufferView":4,
			"componentType":5126,
			"count":9341,
			"max":[
				5.8826212882995605,
				3.62164568901062,
				-1.07246994972229
			],
			"min":[
				-4.588242053985596,
				-3.3138678073883057,
				-5.635279178619385
			],
			"type":"VEC3"
		},
		{
			"bufferView":5,
			"componentType":5126,
			"count":9341,
			"type":"VEC3"
		},
		{
			"bufferView":6,
			"componentType":5126,
			"count":9341,
			"type":"VEC2"
		},
		{
			"bufferView":7,
			"componentType":5123,
			"count":50508,
			"type":"SCALAR"
		},
		{
			"bufferView":8,
			"componentType":5126,
			"count":31364,
			"max":[
				14.793928146362305,
				5.870944976806641,
				5.720370769500732
			],
			"min":[
				-14.653809547424316,
				-5.335505962371826,
				0.7161108255386353
			],
			"type":"VEC3"
		},
		{
			"bufferView":9,
			"componentType":5126,
			"count":31364,
			"type":"VEC3"
		},
		{
			"bufferView":10,
			"componentType":5126,
			"count":31364,
			"type":"VEC2"
		},
		{
			"bufferView":11,
			"componentType":5123,
			"count":159762,
			"type":"SCALAR"
		},
		{
			"bufferView":12,
			"componentType":5126,
			"count":15421,
			"max":[
				14.623189926147461,
				5.496866226196289,
				4.068791389465332
			],
			"min":[
				-13.282583236694336,
				-4.967965602874756,
				-7.142548561096191
			],
			"type":"VEC3"
		},
		{
			"bufferView":13,
			"componentType":5126,
			"count":15421,
			"type":"VEC3"
		},
		{
			"bufferView":14,
			"componentType":5126,
			"count":15421,
			"type":"VEC2"
		},
		{
			"bufferView":15,
			"componentType":5123,
			"count":82158,
			"type":"SCALAR"
		}
	],
	"bufferViews":[
		{
			"buffer":0,
			"byteLength":43020,
			"byteOffset":0,
			"target":34962
		},
		{
			"buffer":0,
			"byteLength":43020,
			"byteOffset":43020,
			"target":34962
		},
		{
			"buffer":0,
			"byteLength":28680,
			"byteOffset":86040,
			"target":34962
		},
		{
			"buffer":0,
			"byteLength":40716,
			"byteOffset":114720,
			"target":34963
		},
		{
			"buffer":0,
			"byteLength":112092,
			"byteOffset":155436,
			"target":34962
		},
		{
			"buffer":0,
			"byteLength":112092,
			"byteOffset":267528,
			"target":34962
		},
		{
			"buffer":0,
			"byteLength":74728,
			"byteOffset":379620,
			"target":34962
		},
		{
			"buffer":0,
			"byteLength":101016,
			"byteOffset":454348,
			"target":34963
		},
		{
			"buffer":0,
			"byteLength":376368,
			"byteOffset":555364,
			"target":34962
		},
		{
			"buffer":0,
			"byteLength":376368,
			"byteOffset":931732,
			"target":34962
		},
		{
			"buffer":0,
			"byteLength":250912,
			"byteOffset":1308100,
			"target":34962
		},
		{
			"buffer":0,
			"byteLength":319524,
			"byteOffset":1559012,
			"target":34963
		},
		{
			"buffer":0,
			"byteLength":185052,
			"byteOffset":1878536,
			"target":34962
		},
		{
			"buffer":0,
			"byteLength":185052,
			"byteOffset":2063588,
			"target":34962
		},
		{
			"buffer":0,
			"byteLength":123368,
			"byteOffset":2248640,
			"target":34962
		},
		{
			"buffer":0,
			"byteLength":164316,
			"byteOffset":2372008,
			"target":34963
		}
	],
	"samplers":[
		{
			"magFilter":9729,
			"minFilter":9987
		}
	],
	"buffers":[
		{
			"byteLength":2536324,
			"uri":"BO24P011602.bin"
		}
	]
}
